<svg width="40" height="40" viewBox="0 0 40 40" fill="none" xmlns="http://www.w3.org/2000/svg">
<circle cx="20" cy="20" r="20" fill="#FFDA2F"/>
<path fill-rule="evenodd" clip-rule="evenodd" d="M20 10.8623C20.6904 10.8623 21.25 11.4219 21.25 12.1123V22.1123C21.25 22.8027 20.6904 23.3623 20 23.3623C19.3096 23.3623 18.75 22.8027 18.75 22.1123V12.1123C18.75 11.4219 19.3096 10.8623 20 10.8623Z" fill="#F6F6F6"/>
<path fill-rule="evenodd" clip-rule="evenodd" d="M20 24.8623C20.6904 24.8623 21.25 25.4219 21.25 26.1123V26.6123C21.25 27.3027 20.6904 27.8623 20 27.8623C19.3096 27.8623 18.75 27.3027 18.75 26.6123V26.1123C18.75 25.4219 19.3096 24.8623 20 24.8623Z" fill="#F6F6F6"/>
</svg>
